<?xml version="1.0" standalone="no"?>
<!DOCTYPE svg PUBLIC "-//W3C//DTD SVG 20010904//EN"
 "http://www.w3.org/TR/2001/REC-SVG-20010904/DTD/svg10.dtd">
<svg version="1.0" xmlns="http://www.w3.org/2000/svg"
 width="700.000000pt" height="700.000000pt" viewBox="0 0 700.000000 700.000000"
 preserveAspectRatio="xMidYMid meet">
<metadata>
Created by potrace 1.14, written by Peter Selinger 2001-2017
</metadata>
<g transform="translate(0.000000,700.000000) scale(0.100000,-0.100000)"
fill="#000000" stroke="none">
<path d="M3262 5799 c-191 -29 -424 -112 -583 -206 -390 -232 -676 -631 -766
-1067 l-17 -85 -91 -32 c-247 -88 -533 -224 -694 -330 -111 -73 -219 -176
-252 -239 -32 -62 -32 -142 0 -193 97 -158 483 -261 1063 -283 l176 -7 66 -97
c97 -143 204 -254 388 -400 4 -3 -18 -37 -49 -75 -197 -245 -370 -587 -453
-897 -50 -188 -90 -481 -90 -660 l0 -38 213 0 214 0 6 138 c14 302 85 573 223
846 53 104 183 311 191 303 2 -3 -5 -74 -16 -158 -41 -313 -73 -671 -87 -976
l-7 -153 372 0 c290 0 371 3 371 13 0 6 -7 50 -15 97 -19 105 -22 290 -6 349
17 61 59 101 106 101 77 0 113 -58 122 -200 5 -76 -14 -265 -33 -337 l-6 -23
376 0 377 0 -5 48 c-3 26 -8 108 -11 182 -11 260 -61 787 -91 968 l-5 34 62
-42 c266 -181 583 -211 854 -81 247 118 433 379 525 736 30 119 56 262 48 271
-6 5 -360 54 -394 54 -18 0 -23 -11 -38 -96 -50 -282 -168 -494 -318 -574
-152 -81 -365 -37 -517 108 l-56 53 25 20 c237 189 387 373 499 610 46 98 121
313 121 348 0 11 26 25 83 44 272 94 572 234 737 345 118 79 230 188 260 254
118 260 -282 440 -1035 465 l-191 6 -36 66 c-92 169 -291 387 -463 510 -96 67
-308 175 -415 211 -168 56 -265 72 -475 75 -110 2 -228 -1 -263 -6z"/>
</g>
</svg>
